<svg width="32" height="32" viewBox="0 0 32 32" fill="none"
    xmlns="http://www.w3.org/2000/svg">
    <path d="M22.4946 7.31229H26.5824C26.9084 7.31229 27.1703 7.04137 27.1703 6.71025C27.1703 6.37911 26.9084 6.1082 26.5824 6.1082H22.4946C22.1686 6.1082 21.9067 6.37912 21.9067 6.71025C21.9067 7.04138 22.1686 7.31229 22.4946 7.31229Z" fill="#434343" />
    <path d="M20.663 24.5431H24.8698C25.1957 24.5431 25.4578 24.2723 25.4578 23.9411V6.71067C25.4578 5.1895 24.2517 3.95 22.7664 3.95C21.281 3.95 20.075 5.18956 20.075 6.71067V23.9411C20.075 24.2722 20.3369 24.5431 20.663 24.5431ZM24.2817 6.71067V23.3391H21.2508V6.71067C21.2508 5.85114 21.9319 5.15415 22.7663 5.15415C23.6006 5.15415 24.2817 5.85114 24.2817 6.71067Z" fill="#434343" />
    <path d="M7.36378 27.05H20.6629C20.989 27.05 21.2509 26.7791 21.2509 26.448V6.71067C21.2509 5.85114 21.932 5.15415 22.7664 5.15415C23.0923 5.15415 23.3544 4.88324 23.3544 4.55211C23.3544 4.22091 23.0923 3.95 22.7664 3.95H9.46722C7.98182 3.95 6.77581 5.18956 6.77581 6.71067V26.448C6.77581 26.7791 7.03784 27.05 7.36378 27.05ZM20.075 6.71067V25.8459H7.95176V6.71067C7.95176 5.85114 8.63289 5.15415 9.46722 5.15415H20.5446C20.2485 5.59766 20.075 6.13379 20.075 6.71067Z" fill="#434343" />
    <path d="M7.36375 7.31229H5.41762C5.09161 7.31229 4.82964 7.04138 4.82964 6.71025C4.82964 6.37912 5.09154 6.1082 5.41762 6.1082H7.36369C7.6897 6.1082 7.95166 6.37911 7.95167 6.71024L7.36375 7.31229ZM7.36375 7.31229C7.68976 7.31229 7.95173 7.04138 7.95167 6.71025L7.36375 7.31229Z" fill="#434343" />
    <path d="M7.36378 23.9027H16.713C17.0391 23.9027 17.3011 23.6318 17.3011 23.3007C17.3011 22.9696 17.0391 22.6987 16.7131 22.6987H7.36378C7.03777 22.6987 6.77581 22.9696 6.77581 23.3007C6.77581 23.6318 7.03784 23.9027 7.36378 23.9027Z" fill="#434343" />
    <path d="M7.36378 20.7638H16.713C17.0391 20.7638 17.301 20.4929 17.3011 20.1618C17.3011 19.8307 17.0391 19.5597 16.7131 19.5597H7.36378C7.03777 19.5597 6.77581 19.8307 6.77581 20.1618C6.77581 20.4929 7.03784 20.7638 7.36378 20.7638Z" fill="#434343" />
    <path d="M1.95 6.71043C1.95 7.85597 2.85835 8.78995 3.97768 8.78995C5.09715 8.78995 6.00549 7.85597 6.00549 6.71043C6.00549 5.56488 5.09715 4.63091 3.97768 4.63091C2.85835 4.63091 1.95 5.56489 1.95 6.71043ZM3.12595 6.71043C3.12595 6.2264 3.50929 5.83493 3.97768 5.83493C4.44621 5.83493 4.8296 6.22647 4.8296 6.71043C4.8296 7.19438 4.44621 7.58586 3.97768 7.58586C3.50929 7.58586 3.12595 7.19439 3.12595 6.71043Z" fill="#434343" />
    <path d="M28.0222 5.83517C27.5537 5.83517 27.1703 6.22665 27.1703 6.71067C27.1703 7.19463 27.5537 7.58611 28.0222 7.58611C28.4908 7.58611 28.8742 7.19463 28.8742 6.71068L28.0222 5.83517ZM28.0222 5.83517C28.4908 5.83517 28.8741 6.22671 28.8742 6.71067L28.0222 5.83517ZM25.9944 6.71067C25.9944 7.85622 26.9028 8.79019 28.0222 8.79019C29.1417 8.79019 30.0501 7.85622 30.0501 6.71067C30.0501 5.56513 29.1417 4.63115 28.0222 4.63115C26.9028 4.63115 25.9944 5.56513 25.9944 6.71067Z" fill="#434343" />
    <path d="M22.1784 23.941C22.1784 24.2721 22.4404 24.543 22.7664 24.543C23.0923 24.543 23.3543 24.2722 23.3543 23.941V15.0497C23.3543 14.7186 23.0923 14.4477 22.7664 14.4477C22.4403 14.4477 22.1784 14.7186 22.1784 15.0497V23.941Z" fill="#434343" />
</svg>
